<?xml version="1.0" encoding="UTF-8" standalone="no"?>
<!-- Created with Inkscape (http://www.inkscape.org/) -->

<svg
   xmlns:dc="http://purl.org/dc/elements/1.1/"
   xmlns:cc="http://creativecommons.org/ns#"
   xmlns:rdf="http://www.w3.org/1999/02/22-rdf-syntax-ns#"
   xmlns:svg="http://www.w3.org/2000/svg"
   xmlns="http://www.w3.org/2000/svg"
   xmlns:xlink="http://www.w3.org/1999/xlink"
   xmlns:sodipodi="http://sodipodi.sourceforge.net/DTD/sodipodi-0.dtd"
   xmlns:inkscape="http://www.inkscape.org/namespaces/inkscape"
   width="250"
   height="250"
   id="svg9341"
   version="1.1"
   inkscape:version="0.48.4 r9939"
   sodipodi:docname="social-fb.svg">
  <defs
     id="defs9343">
    <linearGradient
       inkscape:collect="always"
       xlink:href="#SVGID_119_"
       id="linearGradient9148"
       gradientUnits="userSpaceOnUse"
       x1="352.2988"
       y1="191.59129"
       x2="352.2988"
       y2="240.0515" />
    <linearGradient
       id="SVGID_119_"
       gradientUnits="userSpaceOnUse"
       x1="352.2988"
       y1="191.59129"
       x2="352.2988"
       y2="240.0515">
      <stop
         offset="0"
         style="stop-color:#FCFCFC"
         id="stop1500" />
      <stop
         offset="1"
         style="stop-color:#D4D4D4"
         id="stop1502" />
    </linearGradient>
    <linearGradient
       inkscape:collect="always"
       xlink:href="#SVGID_120_"
       id="linearGradient9150"
       gradientUnits="userSpaceOnUse"
       x1="337.87399"
       y1="162.91161"
       x2="337.87399"
       y2="205.2271" />
    <linearGradient
       id="SVGID_120_"
       gradientUnits="userSpaceOnUse"
       x1="337.87399"
       y1="162.91161"
       x2="337.87399"
       y2="205.2271">
      <stop
         offset="0"
         style="stop-color:#DFE2E4"
         id="stop1509" />
      <stop
         offset="1"
         style="stop-color:#BEC7CC"
         id="stop1511" />
    </linearGradient>
    <linearGradient
       inkscape:collect="always"
       xlink:href="#SVGID_121_"
       id="linearGradient9152"
       gradientUnits="userSpaceOnUse"
       x1="358.06839"
       y1="162.9106"
       x2="358.06839"
       y2="205.2282" />
    <linearGradient
       id="SVGID_121_"
       gradientUnits="userSpaceOnUse"
       x1="358.06839"
       y1="162.9106"
       x2="358.06839"
       y2="205.2282">
      <stop
         offset="0"
         style="stop-color:#DFE2E4"
         id="stop1516" />
      <stop
         offset="1"
         style="stop-color:#BEC7CC"
         id="stop1518" />
    </linearGradient>
    <linearGradient
       inkscape:collect="always"
       xlink:href="#SVGID_122_"
       id="linearGradient9154"
       gradientUnits="userSpaceOnUse"
       x1="365.28119"
       y1="162.91161"
       x2="365.28119"
       y2="205.2271" />
    <linearGradient
       id="SVGID_122_"
       gradientUnits="userSpaceOnUse"
       x1="365.28119"
       y1="162.91161"
       x2="365.28119"
       y2="205.2271">
      <stop
         offset="0"
         style="stop-color:#DFE2E4"
         id="stop1523" />
      <stop
         offset="1"
         style="stop-color:#BEC7CC"
         id="stop1525" />
    </linearGradient>
    <linearGradient
       inkscape:collect="always"
       xlink:href="#SVGID_185_"
       id="linearGradient9229"
       gradientUnits="userSpaceOnUse"
       gradientTransform="translate(-37.443911,128.93381)"
       x1="475.80521"
       y1="196.2979"
       x2="475.80521"
       y2="264.1524" />
    <linearGradient
       id="SVGID_185_"
       gradientUnits="userSpaceOnUse"
       x1="475.80521"
       y1="196.2979"
       x2="475.80521"
       y2="264.1524">
      <stop
         offset="0"
         style="stop-color:#EEF3F5"
         id="stop2142" />
      <stop
         offset="1"
         style="stop-color:#D6DEE3"
         id="stop2144" />
    </linearGradient>
    <clipPath
       id="SVGID_192_">
      <use
         height="638.49902"
         width="852.586"
         y="0"
         x="0"
         style="overflow:visible"
         id="use2224"
         overflow="visible"
         xlink:href="#SVGID_191_" />
    </clipPath>
    <linearGradient
       inkscape:collect="always"
       xlink:href="#SVGID_193_"
       id="linearGradient9231"
       gradientUnits="userSpaceOnUse"
       gradientTransform="matrix(0,36.2061,36.2061,0,-13262.94,-12442.588)"
       x1="349.83499"
       y1="379.97711"
       x2="350.47491"
       y2="379.97711" />
    <linearGradient
       gradientTransform="matrix(0,36.2061,36.2061,0,-13262.94,-12442.588)"
       y2="379.97711"
       x2="350.47491"
       y1="379.97711"
       x1="349.83499"
       gradientUnits="userSpaceOnUse"
       id="SVGID_193_">
      <stop
         id="stop2229"
         style="stop-color:#F8F9FA"
         offset="0" />
      <stop
         id="stop2231"
         style="stop-color:#D2D2D4"
         offset="1" />
    </linearGradient>
  </defs>
  <sodipodi:namedview
     id="base"
     pagecolor="#ffffff"
     bordercolor="#666666"
     borderopacity="1.0"
     inkscape:pageopacity="0.0"
     inkscape:pageshadow="2"
     inkscape:zoom="0.35"
     inkscape:cx="350"
     inkscape:cy="8.9979057"
     inkscape:document-units="px"
     inkscape:current-layer="layer1"
     showgrid="false"
     inkscape:window-width="580"
     inkscape:window-height="454"
     inkscape:window-x="5"
     inkscape:window-y="28"
     inkscape:window-maximized="0" />
  <metadata
     id="metadata9346">
    <rdf:RDF>
      <cc:Work
         rdf:about="">
        <dc:format>image/svg+xml</dc:format>
        <dc:type
           rdf:resource="http://purl.org/dc/dcmitype/StillImage" />
        <dc:title></dc:title>
      </cc:Work>
    </rdf:RDF>
  </metadata>
  <g
     inkscape:label="Capa 1"
     inkscape:groupmode="layer"
     id="layer1"
     transform="translate(0,-802.36218)">
    <g
       id="g9175"
       transform="translate(-359.85709,752.11096)">
      <g
         transform="translate(40.943704,-184.24667)"
         id="g9074">
        <path
           style="fill:#294172;fill-opacity:1"
           id="path8908"
           d="m 536.06732,355.93056 c 0,-48.92299 -39.65913,-88.58353 -88.5821,-88.58353 -48.9003,0 -88.54383,39.62791 -88.57928,88.5211 l -0.004,-0.003 0,68.54895 0.004,0.004 c 0.027,11.10062 9.02975,20.0878 20.13815,20.0878 0.0314,0 0.0624,-0.004 0.0951,-0.004 l 0.006,0.004 68.37444,0 0,0 c 48.9088,-0.0198 88.54805,-39.66622 88.54805,-88.57502 z"
           inkscape:connector-curvature="0" />
        <g
           id="g8978"
           transform="matrix(1.4046091,0,0,1.4046091,-168.24187,-148.7718)">
          <path
             inkscape:connector-curvature="0"
             style="fill:url(#linearGradient9229)"
             id="path2146"
             d="m 411.62309,393.75881 c -7.2,0 -13.059,-5.07 -13.059,-11.302 v -46.283 c 0,-6.229 5.858,-11.301 13.059,-11.301 h 53.479 c 7.198,0 13.057,5.071 13.057,11.301 v 46.283 c 0,6.231 -5.858,11.302 -13.057,11.302 h -53.479 z" />
          <g
             style="fill:#294172;fill-opacity:1"
             transform="translate(-37.443911,128.93381)"
             id="g2148">
            <linearGradient
               y2="259.64581"
               x2="488.58249"
               y1="220.688"
               x1="488.58249"
               gradientUnits="userSpaceOnUse"
               id="SVGID_186_">
              <stop
                 id="stop2151"
                 style="stop-color:#85C441"
                 offset="0.25" />
              <stop
                 id="stop2153"
                 style="stop-color:#478B42"
                 offset="1" />
            </linearGradient>
            <path
               inkscape:connector-curvature="0"
               style="fill:#294172;fill-opacity:1"
               id="path2155"
               d="m 466.885,260.171 c 9.411,-2.903 15.308,-8.733 15.308,-15.425 0,-6.563 -4.92,-9.846 -9.681,-13.025 l -3.899,-2.405 c -1.045,-0.678 -2.041,-1.322 -2.041,-2.474 0,-1.171 1.08,-2.029 2.329,-3.029 1.394,-0.866 3.17,-1.972 4.767,-3.326 3.931,-0.125 7.899,-0.258 11.747,-0.258 8.401,0 16.871,0.573 25.18,1.704 v 28.682 c 0,5.272 -5.401,9.557 -12.041,9.557 h -31.669 z" />
            <path
               style="fill:#294172;fill-opacity:1"
               inkscape:connector-curvature="0"
               id="path2157"
               d="m 485.415,220.7 c 8.202,0 16.469,0.55 24.588,1.631 v 28.284 c 0,5.007 -5.139,9.087 -11.449,9.087 h -28.85 c 8.117,-3.19 13.083,-8.704 13.083,-14.955 0,-6.783 -5.254,-10.29 -9.93,-13.407 l -3.858,-2.38 c -1.135,-0.737 -1.834,-1.233 -1.834,-2.117 0,-0.93 0.818,-1.629 2.064,-2.632 1.353,-0.846 3.01,-1.876 4.549,-3.138 4.129,-0.248 7.939,-0.373 11.637,-0.373 m 0,-0.94 c -4.119,0 -8.18,0.153 -12.182,0.407 -1.515,1.284 -3.188,2.338 -4.735,3.299 -1.329,1.062 -2.519,2.005 -2.519,3.376 0,1.372 1.153,2.122 2.268,2.846 l 3.886,2.393 c 4.674,3.121 9.471,6.323 9.471,12.666 0,6.669 -6.357,13.336 -18.442,15.896 h 35.393 c 6.949,0 12.634,-4.51 12.634,-10.027 v -29.077 c -8.288,-1.151 -16.906,-1.779 -25.774,-1.779 l 0,0 z" />
          </g>
          <g
             style="fill:#294172;fill-opacity:1"
             transform="translate(-37.443911,128.93381)"
             id="g2159">
            <linearGradient
               y2="222.14861"
               x2="457.76031"
               y1="201.0513"
               x1="457.76031"
               gradientUnits="userSpaceOnUse"
               id="SVGID_187_">
              <stop
                 id="stop2162"
                 style="stop-color:#66B8E7"
                 offset="0" />
              <stop
                 id="stop2164"
                 style="stop-color:#1B75BC"
                 offset="1" />
            </linearGradient>
            <path
               inkscape:connector-curvature="0"
               style="fill:#294172;fill-opacity:1"
               id="path2166"
               d="m 459.088,222.358 c -6.339,0 -8.971,-8.708 -8.971,-13.37 0,-2.275 0.494,-4.001 1.517,-5.257 0.688,-0.866 2.521,-2.421 3.63,-2.791 l 3.292,0.022 c 4.183,1.571 6.848,9.463 6.848,14.42 0,0.842 0,3.397 -1.666,5.066 -1.127,1.126 -3.041,1.91 -4.65,1.91 l 0,0 z" />
            <path
               style="fill:#294172;fill-opacity:1"
               inkscape:connector-curvature="0"
               id="path2168"
               d="m 458.381,201.431 c 4.063,1.653 6.552,9.189 6.552,13.951 0,0.793 0,3.202 -1.525,4.73 -1.032,1.03 -2.845,1.776 -4.319,1.776 -5.937,0 -8.503,-8.544 -8.503,-12.901 0,-2.167 0.464,-3.789 1.415,-4.968 0.612,-0.767 2.251,-2.17 3.281,-2.589 h 3.099 m 0.175,-0.938 h -3.443 c -1.263,0.427 -3.148,2.07 -3.848,2.94 -1.088,1.345 -1.619,3.161 -1.619,5.556 0,4.824 2.771,13.841 9.442,13.841 1.725,0 3.775,-0.845 4.983,-2.049 1.804,-1.807 1.804,-4.508 1.804,-5.397 0,-4.758 -2.537,-13.133 -7.319,-14.891 l 0,0 z" />
          </g>
          <g
             style="fill:#294172;fill-opacity:1"
             transform="translate(-37.443911,128.93381)"
             id="g2170">
            <linearGradient
               y2="220.881"
               x2="492.33939"
               y1="199.6216"
               x1="492.33939"
               gradientUnits="userSpaceOnUse"
               id="SVGID_188_">
              <stop
                 id="stop2173"
                 style="stop-color:#F79F89"
                 offset="0" />
              <stop
                 id="stop2175"
                 style="stop-color:#DE3428"
                 offset="1" />
            </linearGradient>
            <path
               inkscape:connector-curvature="0"
               style="fill:#294172;fill-opacity:1"
               id="path2177"
               d="m 510.594,220.979 c -8.313,-1.124 -16.778,-1.689 -25.18,-1.689 -3.441,0 -6.987,0.106 -10.783,0.322 2.669,-2.602 3.922,-5.483 3.922,-8.976 0,-3.617 -1.501,-6.869 -4.469,-9.674 h 24.469 c 6.64,0 12.041,4.287 12.041,9.557 v 10.46 z" />
            <path
               style="fill:#294172;fill-opacity:1"
               inkscape:connector-curvature="0"
               id="path2179"
               d="m 498.553,201.431 c 6.311,0 11.449,4.076 11.449,9.088 v 9.906 c -8.123,-1.065 -16.386,-1.605 -24.588,-1.605 -3.063,0 -6.197,0.08 -9.522,0.252 2.21,-2.47 3.253,-5.194 3.253,-8.436 0,-3.405 -1.288,-6.492 -3.834,-9.205 h 23.242 m 0,-0.939 h -25.787 c 2.467,2.07 5.193,5.316 5.193,10.145 0,4.395 -2.111,7.311 -4.727,9.531 4.002,-0.254 8.062,-0.407 12.182,-0.407 8.868,0 17.486,0.628 25.772,1.777 v -11.019 c 0.001,-5.516 -5.684,-10.027 -12.633,-10.027 l 0,0 z" />
          </g>
          <g
             style="fill:#294172;fill-opacity:1"
             transform="translate(-37.443911,128.93381)"
             id="g2181">
            <linearGradient
               y2="237.1582"
               x2="448.90869"
               y1="220.4502"
               x1="448.90869"
               gradientUnits="userSpaceOnUse"
               id="SVGID_189_">
              <stop
                 id="stop2184"
                 style="stop-color:#66B8E7"
                 offset="0" />
              <stop
                 id="stop2186"
                 style="stop-color:#1B75BC"
                 offset="1" />
            </linearGradient>
            <path
               inkscape:connector-curvature="0"
               style="fill:#294172;fill-opacity:1"
               id="path2188"
               d="m 441.574,220.362 c 1.603,2.42 3.831,4.259 6.523,5.36 2.236,1.156 4.585,1.762 6.948,1.784 -0.051,0.318 -0.086,0.695 -0.086,1.123 0,1.954 0.62,3.401 1.284,4.498 -4.14,0.359 -9.804,1.2 -14.236,3.914 -0.153,0.092 -0.294,0.188 -0.434,0.282 v -16.961 z" />
            <g
               style="fill:#294172;fill-opacity:1"
               id="g2190">
              <path
                 style="fill:#294172;fill-opacity:1"
                 inkscape:connector-curvature="0"
                 id="path2192"
                 d="m 442.042,221.794 c 1.555,1.924 3.527,3.399 5.805,4.331 2.167,1.117 4.409,1.732 6.671,1.836 -0.019,0.206 -0.027,0.43 -0.027,0.668 0,1.7 0.443,3.033 0.987,4.098 -4.021,0.39 -9.229,1.263 -13.436,3.745 v -14.678 m -0.939,-3.172 v 19.627 c 0.38,-0.271 0.72,-0.551 1.15,-0.808 4.685,-2.866 10.773,-3.597 14.817,-3.91 -0.886,-1.272 -1.641,-2.787 -1.641,-4.901 0,-0.623 0.082,-1.134 0.193,-1.607 -0.146,0.005 -0.297,0.014 -0.437,0.014 -2.507,0 -4.846,-0.682 -6.91,-1.747 -3.343,-1.373 -5.726,-3.827 -7.172,-6.668 l 0,0 z" />
            </g>
          </g>
          <g
             style="fill:#294172;fill-opacity:1"
             transform="translate(-37.443911,128.93381)"
             id="g2194">
            <linearGradient
               y2="251.65961"
               x2="458.686"
               y1="234.58791"
               x1="458.686"
               gradientUnits="userSpaceOnUse"
               id="SVGID_190_">
              <stop
                 id="stop2197"
                 style="stop-color:#FFE794"
                 offset="0" />
              <stop
                 id="stop2199"
                 style="stop-color:#FFE591"
                 offset="0.1595" />
              <stop
                 id="stop2201"
                 style="stop-color:#FFE288"
                 offset="0.2985" />
              <stop
                 id="stop2203"
                 style="stop-color:#FFDA79"
                 offset="0.4297" />
              <stop
                 id="stop2205"
                 style="stop-color:#FFD162"
                 offset="0.5563" />
              <stop
                 id="stop2207"
                 style="stop-color:#FFC640"
                 offset="0.6783" />
              <stop
                 id="stop2209"
                 style="stop-color:#FDB913"
                 offset="0.7946" />
              <stop
                 id="stop2211"
                 style="stop-color:#FDB415"
                 offset="1" />
            </linearGradient>
            <path
               inkscape:connector-curvature="0"
               style="fill:#294172;fill-opacity:1"
               id="path2213"
               d="m 459.689,252.465 c -6.353,-0.037 -10.619,-2.871 -10.619,-7.061 0,-4.02 3.789,-5.386 5.033,-5.833 2.859,-0.959 6.688,-1.022 6.727,-1.022 0.544,0 0.84,0.005 1.189,0.029 4.733,3.478 6.282,5.017 6.282,7.678 0,3.786 -3.219,6.107 -8.612,6.209 l 0,0 z" />
            <path
               style="fill:#294172;fill-opacity:1"
               inkscape:connector-curvature="0"
               id="path2215"
               d="m 460.886,239.02 c 0.351,0 0.598,0 0.84,0.015 4.646,3.341 6.105,4.803 6.105,7.222 0,3.498 -3.052,5.644 -8.137,5.738 -6.073,-0.032 -10.156,-2.681 -10.156,-6.59 0,-3.308 2.696,-4.658 4.705,-5.386 2.827,-0.946 6.553,-0.999 6.581,-0.999 h 0.062 m 0,-0.94 c -0.023,0 -0.037,0 -0.062,0 -0.033,0 -3.912,0.056 -6.877,1.047 -1.323,0.479 -5.348,1.932 -5.348,6.278 0,4.479 4.451,7.493 11.092,7.529 5.599,-0.105 9.08,-2.632 9.08,-6.678 0,-2.974 -1.872,-4.673 -6.715,-8.143 -0.359,-0.03 -0.664,-0.033 -1.17,-0.033 l 0,0 z" />
          </g>
          <polygon
             transform="translate(-37.443911,128.93381)"
             style="fill:#1066ae"
             id="polygon2217"
             points="493.305,247.217 495.864,247.217 495.864,236.982 506.1,236.982 506.1,234.422 495.864,234.422 495.864,224.185 493.305,224.185 493.305,234.422 483.067,234.422 483.067,236.982 493.305,236.982 " />
          <g
             transform="translate(-37.443911,128.93381)"
             id="Plus_1_">
            <defs
               id="defs2220">
              <polygon
                 points="506.1,236.34 506.1,233.782 495.864,233.782 495.864,223.545 493.305,223.545 493.305,233.782 483.067,233.782 483.067,236.34 493.305,236.34 493.305,246.579 495.864,246.579 495.864,236.34 "
                 id="SVGID_191_" />
            </defs>
            <clipPath
               id="clipPath9574">
              <use
                 height="638.49902"
                 width="852.586"
                 y="0"
                 x="0"
                 style="overflow:visible"
                 id="use9576"
                 overflow="visible"
                 xlink:href="#SVGID_191_" />
            </clipPath>
            <g
               id="g2226"
               clip-path="url(#SVGID_192_)">
              <linearGradient
                 gradientTransform="matrix(0,36.2061,36.2061,0,-13262.94,-12442.588)"
                 y2="379.97711"
                 x2="350.47491"
                 y1="379.97711"
                 x1="349.83499"
                 gradientUnits="userSpaceOnUse"
                 id="linearGradient9579">
                <stop
                   id="stop9581"
                   style="stop-color:#F8F9FA"
                   offset="0" />
                <stop
                   id="stop9583"
                   style="stop-color:#D2D2D4"
                   offset="1" />
              </linearGradient>
              <rect
                 style="fill:url(#linearGradient9231)"
                 id="rect2233"
                 height="23.033001"
                 width="23.033001"
                 y="223.545"
                 x="483.06699" />
            </g>
          </g>
        </g>
      </g>
    </g>
  </g>
</svg>
