<?xml version="1.0" encoding="UTF-8" standalone="no"?>
<!-- Created with Inkscape (http://www.inkscape.org/) -->

<svg
   xmlns:dc="http://purl.org/dc/elements/1.1/"
   xmlns:cc="http://creativecommons.org/ns#"
   xmlns:rdf="http://www.w3.org/1999/02/22-rdf-syntax-ns#"
   xmlns:svg="http://www.w3.org/2000/svg"
   xmlns="http://www.w3.org/2000/svg"
   xmlns:sodipodi="http://sodipodi.sourceforge.net/DTD/sodipodi-0.dtd"
   xmlns:inkscape="http://www.inkscape.org/namespaces/inkscape"
   width="250"
   height="250"
   id="svg9341"
   version="1.1"
   inkscape:version="0.48.4 r9939"
   sodipodi:docname="social-mail.svg">
  <defs
     id="defs9343">
    <linearGradient
       id="SVGID_119_"
       gradientUnits="userSpaceOnUse"
       x1="352.2988"
       y1="191.59129"
       x2="352.2988"
       y2="240.0515">
      <stop
         offset="0"
         style="stop-color:#FCFCFC"
         id="stop1500" />
      <stop
         offset="1"
         style="stop-color:#D4D4D4"
         id="stop1502" />
    </linearGradient>
    <linearGradient
       id="SVGID_120_"
       gradientUnits="userSpaceOnUse"
       x1="337.87399"
       y1="162.91161"
       x2="337.87399"
       y2="205.2271">
      <stop
         offset="0"
         style="stop-color:#DFE2E4"
         id="stop1509" />
      <stop
         offset="1"
         style="stop-color:#BEC7CC"
         id="stop1511" />
    </linearGradient>
    <linearGradient
       id="SVGID_121_"
       gradientUnits="userSpaceOnUse"
       x1="358.06839"
       y1="162.9106"
       x2="358.06839"
       y2="205.2282">
      <stop
         offset="0"
         style="stop-color:#DFE2E4"
         id="stop1516" />
      <stop
         offset="1"
         style="stop-color:#BEC7CC"
         id="stop1518" />
    </linearGradient>
    <linearGradient
       id="SVGID_122_"
       gradientUnits="userSpaceOnUse"
       x1="365.28119"
       y1="162.91161"
       x2="365.28119"
       y2="205.2271">
      <stop
         offset="0"
         style="stop-color:#DFE2E4"
         id="stop1523" />
      <stop
         offset="1"
         style="stop-color:#BEC7CC"
         id="stop1525" />
    </linearGradient>
    <linearGradient
       id="SVGID_185_"
       gradientUnits="userSpaceOnUse"
       x1="475.80521"
       y1="196.2979"
       x2="475.80521"
       y2="264.1524">
      <stop
         offset="0"
         style="stop-color:#EEF3F5"
         id="stop2142" />
      <stop
         offset="1"
         style="stop-color:#D6DEE3"
         id="stop2144" />
    </linearGradient>
    <clipPath
       id="SVGID_192_">
      <polygon
         id="use2224"
         points="506.1,233.782 495.864,233.782 495.864,223.545 493.305,223.545 493.305,233.782 483.067,233.782 483.067,236.34 493.305,236.34 493.305,246.579 495.864,246.579 495.864,236.34 506.1,236.34 " />
    </clipPath>
    <linearGradient
       gradientTransform="matrix(0,36.2061,36.2061,0,-13262.94,-12442.588)"
       y2="379.97711"
       x2="350.47491"
       y1="379.97711"
       x1="349.83499"
       gradientUnits="userSpaceOnUse"
       id="SVGID_193_">
      <stop
         id="stop2229"
         style="stop-color:#F8F9FA"
         offset="0" />
      <stop
         id="stop2231"
         style="stop-color:#D2D2D4"
         offset="1" />
    </linearGradient>
    <linearGradient
       id="SVGID_296_"
       gradientUnits="userSpaceOnUse"
       x1="580.63531"
       y1="111.9399"
       x2="606.28473"
       y2="111.9399">
      <stop
         offset="0"
         style="stop-color:#A6A6A6"
         id="stop3253" />
      <stop
         offset="1"
         style="stop-color:#595959"
         id="stop3255" />
    </linearGradient>
    <linearGradient
       id="SVGID_297_"
       gradientUnits="userSpaceOnUse"
       x1="592.95068"
       y1="104.2393"
       x2="592.95068"
       y2="114.9238">
      <stop
         offset="0"
         style="stop-color:#DAE5EB"
         id="stop3260" />
      <stop
         offset="1"
         style="stop-color:#FFFFFF"
         id="stop3262" />
    </linearGradient>
  </defs>
  <sodipodi:namedview
     id="base"
     pagecolor="#ffffff"
     bordercolor="#666666"
     borderopacity="1.0"
     inkscape:pageopacity="0.0"
     inkscape:pageshadow="2"
     inkscape:zoom="0.35"
     inkscape:cx="387.14286"
     inkscape:cy="-25.287809"
     inkscape:document-units="px"
     inkscape:current-layer="layer1"
     showgrid="false"
     inkscape:window-width="580"
     inkscape:window-height="454"
     inkscape:window-x="5"
     inkscape:window-y="28"
     inkscape:window-maximized="0" />
  <metadata
     id="metadata9346">
    <rdf:RDF>
      <cc:Work
         rdf:about="">
        <dc:format>image/svg+xml</dc:format>
        <dc:type
           rdf:resource="http://purl.org/dc/dcmitype/StillImage" />
        <dc:title />
      </cc:Work>
    </rdf:RDF>
  </metadata>
  <g
     inkscape:label="Capa 1"
     inkscape:groupmode="layer"
     id="layer1"
     transform="translate(0,-802.36218)">
    <path
       inkscape:connector-curvature="0"
       d="m 222.86822,923.79486 c 0,-48.92299 -39.65913,-88.58353 -88.5821,-88.58353 -48.9003,0 -88.54383,39.62791 -88.57928,88.5211 l -0.004,-0.003 0,68.54895 0.004,0.004 c 0.027,11.10062 9.02975,20.08782 20.13815,20.08782 0.0314,0 0.0624,-0 0.0951,-0 l 0.006,0 68.37444,0 0,0 c 48.9088,-0.02 88.54805,-39.66624 88.54805,-88.57504 z"
       id="path8739"
       style="fill:#294172;fill-opacity:1" />
    <g
       id="flowRoot8741"
       style="font-size:40px;font-style:normal;font-variant:normal;font-weight:normal;font-stretch:normal;line-height:125%;letter-spacing:0px;word-spacing:0px;fill:#ffffff;fill-opacity:1;stroke:none;font-family:Monospace;-inkscape-font-specification:Monospace"
       transform="translate(-326.49896,348.33893)">
      <path
         inkscape:connector-curvature="0"
         id="path5152"
         style="font-size:150px;fill:#ffffff"
         d="m 492.68164,574.93913 c -8e-5,-6.29878 -1.56257,-11.32807 -4.6875,-15.08789 -3.12507,-3.80853 -7.29987,-5.71283 -12.52441,-5.71289 -5.22467,6e-5 -9.42388,1.90436 -12.59766,5.71289 -3.12504,3.75982 -4.68754,8.78911 -4.6875,15.08789 -4e-5,6.34769 1.56246,11.42581 4.6875,15.23438 3.17378,3.75978 7.37299,5.63966 12.59766,5.63965 5.22454,10e-6 9.39934,-1.87987 12.52441,-5.63965 3.12493,-3.80857 4.68742,-8.88669 4.6875,-15.23438 m 10.25391,30.0293 -10.54688,0 0,-8.12988 c -1.80671,3.07618 -4.32136,5.44434 -7.54394,7.10449 -3.1739,1.66016 -6.76276,2.49024 -10.76661,2.49023 -7.86137,10e-6 -14.37992,-2.95409 -19.55566,-8.8623 -5.12698,-5.90818 -7.69046,-13.45212 -7.69043,-22.63184 -3e-5,-9.17964 2.56345,-16.72357 7.69043,-22.63183 5.17574,-5.90814 11.69429,-8.86224 19.55566,-8.86231 3.90619,7e-5 7.49506,0.85456 10.76661,2.56348 3.27141,1.70905 5.78606,4.0528 7.54394,7.03125 l 0,-4.61426 c -7e-5,-7.61711 -2.14851,-13.74504 -6.44531,-18.38379 -4.29694,-4.63858 -9.98541,-6.95792 -17.06543,-6.95801 -12.01176,9e-5 -21.58206,4.68759 -28.71094,14.0625 -7.08009,9.32624 -10.62013,21.97272 -10.62012,37.93946 -1e-5,16.06447 4.02831,28.85743 12.08497,38.3789 8.0566,9.52148 18.77437,14.28222 32.15332,14.28223 2.63666,-10e-6 5.27337,-0.24415 7.91015,-0.73242 2.63665,-0.4883 5.34661,-1.24513 8.12989,-2.27051 l 3.51562,9.88769 c -3.07625,1.22069 -6.128,2.12401 -9.15527,2.70997 -2.97858,0.58591 -5.88385,0.87888 -8.71582,0.8789 -17.43169,-2e-5 -31.27445,-5.68849 -41.52832,-17.06543 -10.20509,-11.37695 -15.30762,-26.73338 -15.30762,-46.06933 0,-19.04291 4.58984,-34.20403 13.76953,-45.4834 9.17966,-11.2792 21.48434,-16.91885 36.91406,-16.91895 10.20502,10e-5 18.35931,3.24717 24.46289,9.74121 6.10344,6.49423 9.15519,15.21004 9.15528,26.14746 l 0,56.39649" />
    </g>
  </g>
</svg>
