<?xml version="1.0" encoding="UTF-8" standalone="no"?>
<!-- Created with Inkscape (http://www.inkscape.org/) -->

<svg
   xmlns:dc="http://purl.org/dc/elements/1.1/"
   xmlns:cc="http://creativecommons.org/ns#"
   xmlns:rdf="http://www.w3.org/1999/02/22-rdf-syntax-ns#"
   xmlns:svg="http://www.w3.org/2000/svg"
   xmlns="http://www.w3.org/2000/svg"
   xmlns:xlink="http://www.w3.org/1999/xlink"
   xmlns:sodipodi="http://sodipodi.sourceforge.net/DTD/sodipodi-0.dtd"
   xmlns:inkscape="http://www.inkscape.org/namespaces/inkscape"
   width="250"
   height="250"
   id="svg9341"
   version="1.1"
   inkscape:version="0.48.4 r9939"
   sodipodi:docname="social-g+.svg">
  <defs
     id="defs9343">
    <linearGradient
       inkscape:collect="always"
       xlink:href="#SVGID_119_"
       id="linearGradient9148"
       gradientUnits="userSpaceOnUse"
       x1="352.2988"
       y1="191.59129"
       x2="352.2988"
       y2="240.0515" />
    <linearGradient
       id="SVGID_119_"
       gradientUnits="userSpaceOnUse"
       x1="352.2988"
       y1="191.59129"
       x2="352.2988"
       y2="240.0515">
      <stop
         offset="0"
         style="stop-color:#FCFCFC"
         id="stop1500" />
      <stop
         offset="1"
         style="stop-color:#D4D4D4"
         id="stop1502" />
    </linearGradient>
    <linearGradient
       inkscape:collect="always"
       xlink:href="#SVGID_120_"
       id="linearGradient9150"
       gradientUnits="userSpaceOnUse"
       x1="337.87399"
       y1="162.91161"
       x2="337.87399"
       y2="205.2271" />
    <linearGradient
       id="SVGID_120_"
       gradientUnits="userSpaceOnUse"
       x1="337.87399"
       y1="162.91161"
       x2="337.87399"
       y2="205.2271">
      <stop
         offset="0"
         style="stop-color:#DFE2E4"
         id="stop1509" />
      <stop
         offset="1"
         style="stop-color:#BEC7CC"
         id="stop1511" />
    </linearGradient>
    <linearGradient
       inkscape:collect="always"
       xlink:href="#SVGID_121_"
       id="linearGradient9152"
       gradientUnits="userSpaceOnUse"
       x1="358.06839"
       y1="162.9106"
       x2="358.06839"
       y2="205.2282" />
    <linearGradient
       id="SVGID_121_"
       gradientUnits="userSpaceOnUse"
       x1="358.06839"
       y1="162.9106"
       x2="358.06839"
       y2="205.2282">
      <stop
         offset="0"
         style="stop-color:#DFE2E4"
         id="stop1516" />
      <stop
         offset="1"
         style="stop-color:#BEC7CC"
         id="stop1518" />
    </linearGradient>
    <linearGradient
       inkscape:collect="always"
       xlink:href="#SVGID_122_"
       id="linearGradient9154"
       gradientUnits="userSpaceOnUse"
       x1="365.28119"
       y1="162.91161"
       x2="365.28119"
       y2="205.2271" />
    <linearGradient
       id="SVGID_122_"
       gradientUnits="userSpaceOnUse"
       x1="365.28119"
       y1="162.91161"
       x2="365.28119"
       y2="205.2271">
      <stop
         offset="0"
         style="stop-color:#DFE2E4"
         id="stop1523" />
      <stop
         offset="1"
         style="stop-color:#BEC7CC"
         id="stop1525" />
    </linearGradient>
    <linearGradient
       inkscape:collect="always"
       xlink:href="#SVGID_185_"
       id="linearGradient9229"
       gradientUnits="userSpaceOnUse"
       gradientTransform="translate(-37.443911,128.93381)"
       x1="475.80521"
       y1="196.2979"
       x2="475.80521"
       y2="264.1524" />
    <linearGradient
       id="SVGID_185_"
       gradientUnits="userSpaceOnUse"
       x1="475.80521"
       y1="196.2979"
       x2="475.80521"
       y2="264.1524">
      <stop
         offset="0"
         style="stop-color:#EEF3F5"
         id="stop2142" />
      <stop
         offset="1"
         style="stop-color:#D6DEE3"
         id="stop2144" />
    </linearGradient>
    <clipPath
       id="SVGID_192_">
      <polygon
         id="use2224"
         points="506.1,233.782 495.864,233.782 495.864,223.545 493.305,223.545 493.305,233.782 483.067,233.782 483.067,236.34 493.305,236.34 493.305,246.579 495.864,246.579 495.864,236.34 506.1,236.34 " />
    </clipPath>
    <linearGradient
       inkscape:collect="always"
       xlink:href="#SVGID_193_"
       id="linearGradient9231"
       gradientUnits="userSpaceOnUse"
       gradientTransform="matrix(0,36.2061,36.2061,0,-13262.94,-12442.588)"
       x1="349.83499"
       y1="379.97711"
       x2="350.47491"
       y2="379.97711" />
    <linearGradient
       gradientTransform="matrix(0,36.2061,36.2061,0,-13262.94,-12442.588)"
       y2="379.97711"
       x2="350.47491"
       y1="379.97711"
       x1="349.83499"
       gradientUnits="userSpaceOnUse"
       id="SVGID_193_">
      <stop
         id="stop2229"
         style="stop-color:#F8F9FA"
         offset="0" />
      <stop
         id="stop2231"
         style="stop-color:#D2D2D4"
         offset="1" />
    </linearGradient>
    <linearGradient
       inkscape:collect="always"
       xlink:href="#SVGID_296_"
       id="linearGradient9144"
       gradientUnits="userSpaceOnUse"
       x1="580.63531"
       y1="111.9399"
       x2="606.28473"
       y2="111.9399" />
    <linearGradient
       id="SVGID_296_"
       gradientUnits="userSpaceOnUse"
       x1="580.63531"
       y1="111.9399"
       x2="606.28473"
       y2="111.9399">
      <stop
         offset="0"
         style="stop-color:#A6A6A6"
         id="stop3253" />
      <stop
         offset="1"
         style="stop-color:#595959"
         id="stop3255" />
    </linearGradient>
    <linearGradient
       inkscape:collect="always"
       xlink:href="#SVGID_297_"
       id="linearGradient9146"
       gradientUnits="userSpaceOnUse"
       x1="592.95068"
       y1="104.2393"
       x2="592.95068"
       y2="114.9238" />
    <linearGradient
       id="SVGID_297_"
       gradientUnits="userSpaceOnUse"
       x1="592.95068"
       y1="104.2393"
       x2="592.95068"
       y2="114.9238">
      <stop
         offset="0"
         style="stop-color:#DAE5EB"
         id="stop3260" />
      <stop
         offset="1"
         style="stop-color:#FFFFFF"
         id="stop3262" />
    </linearGradient>
  </defs>
  <sodipodi:namedview
     id="base"
     pagecolor="#ffffff"
     bordercolor="#666666"
     borderopacity="1.0"
     inkscape:pageopacity="0.0"
     inkscape:pageshadow="2"
     inkscape:zoom="0.35"
     inkscape:cx="387.14286"
     inkscape:cy="-25.287809"
     inkscape:document-units="px"
     inkscape:current-layer="layer1"
     showgrid="false"
     inkscape:window-width="580"
     inkscape:window-height="454"
     inkscape:window-x="5"
     inkscape:window-y="28"
     inkscape:window-maximized="0" />
  <metadata
     id="metadata9346">
    <rdf:RDF>
      <cc:Work
         rdf:about="">
        <dc:format>image/svg+xml</dc:format>
        <dc:type
           rdf:resource="http://purl.org/dc/dcmitype/StillImage" />
        <dc:title></dc:title>
      </cc:Work>
    </rdf:RDF>
  </metadata>
  <g
     inkscape:label="Capa 1"
     inkscape:groupmode="layer"
     id="layer1"
     transform="translate(0,-802.36218)">
    <g
       id="g9127"
       transform="translate(-538.05624,567.8643)">
      <g
         transform="translate(76.02481,243.98646)"
         id="g3250">
        <linearGradient
           id="linearGradient9845"
           gradientUnits="userSpaceOnUse"
           x1="580.63531"
           y1="111.9399"
           x2="606.28473"
           y2="111.9399">
          <stop
             offset="0"
             style="stop-color:#A6A6A6"
             id="stop9847" />
          <stop
             offset="1"
             style="stop-color:#595959"
             id="stop9849" />
        </linearGradient>
        <polygon
           points="605.209,115.106 605.935,115.011 605.342,114.581 602.627,112.611 605.629,111.116 606.285,110.789 605.583,110.575 602.376,109.594 604.73,107.205 605.246,106.683 604.512,106.708 601.161,106.821 602.61,103.797 602.927,103.137 602.242,103.397 599.109,104.593 599.499,101.262 599.583,100.536 599.022,101.004 596.447,103.152 595.733,99.876 595.578,99.159 595.198,99.786 593.459,102.654 591.721,99.788 591.341,99.161 591.185,99.876 590.473,103.154 587.896,101.005 587.334,100.536 587.419,101.264 587.81,104.595 584.676,103.399 583.992,103.139 584.308,103.799 585.759,106.823 582.408,106.71 581.675,106.685 582.189,107.208 584.543,109.596 581.336,110.577 580.635,110.792 581.292,111.119 584.293,112.613 581.579,114.583 580.986,115.013 581.712,115.109 585.037,115.549 583.109,118.293 582.688,118.893 583.407,118.747 586.694,118.083 585.762,121.305 585.557,122.01 586.189,121.639 589.083,119.943 589.248,123.294 589.283,124.025 589.761,123.47 591.947,120.926 593.19,124.042 593.462,124.721 593.462,124.721 593.733,124.042 594.976,120.926 597.162,123.468 597.64,124.024 597.676,123.292 597.838,119.941 600.734,121.637 601.366,122.008 601.162,121.304 600.229,118.083 603.516,118.746 604.235,118.891 603.814,118.291 601.884,115.547 "
           id="polygon3257"
           style="fill:url(#linearGradient9144)" />
        <linearGradient
           id="linearGradient9852"
           gradientUnits="userSpaceOnUse"
           x1="592.95068"
           y1="104.2393"
           x2="592.95068"
           y2="114.9238">
          <stop
             offset="0"
             style="stop-color:#DAE5EB"
             id="stop9854" />
          <stop
             offset="1"
             style="stop-color:#FFFFFF"
             id="stop9856" />
        </linearGradient>
        <path
           d="m 592.949,118.759 c -0.238,0 -0.465,-0.106 -0.637,-0.298 l -4.018,-4.56 c -0.185,-0.208 -0.318,-0.32 -0.398,-0.377 l -0.186,-0.134 -0.071,0.219 c -0.065,0.207 -0.285,0.524 -0.533,0.772 -0.122,0.123 -0.224,0.149 -0.289,0.149 -0.148,0 -0.322,-0.145 -0.365,-0.554 l -0.229,-2.215 c -0.024,-0.24 0.041,-0.461 0.188,-0.624 0.142,-0.156 0.346,-0.243 0.576,-0.243 0.031,0 0.062,10e-4 0.096,0.004 l 2.215,0.223 c 0.289,0.03 0.486,0.133 0.54,0.282 0.029,0.08 0.029,0.209 -0.133,0.371 -0.248,0.249 -0.564,0.469 -0.771,0.536 l -0.217,0.071 0.135,0.186 c 0.058,0.081 0.171,0.215 0.378,0.395 l 1.876,1.639 c 0.098,0.085 0.244,0.186 0.393,0.186 0.202,0 0.324,-0.191 0.324,-0.511 v -4.429 l -0.09,-0.047 c -0.873,-0.459 -1.416,-1.349 -1.416,-2.32 0,-1.452 1.182,-2.634 2.633,-2.634 1.453,0 2.635,1.182 2.635,2.634 0,0.934 -0.488,1.78 -1.308,2.262 l -0.083,0.049 v 4.384 c 0,0.32 0.121,0.511 0.324,0.511 0.147,0 0.294,-0.101 0.392,-0.184 l 1.763,-1.54 c 0.209,-0.183 0.321,-0.315 0.379,-0.395 l 0.134,-0.186 -0.218,-0.071 c -0.21,-0.068 -0.52,-0.284 -0.771,-0.536 -0.16,-0.162 -0.161,-0.292 -0.133,-0.372 0.055,-0.151 0.247,-0.25 0.541,-0.281 l 2.214,-0.223 c 0.033,-0.003 0.065,-0.004 0.097,-0.004 0.228,0 0.434,0.086 0.577,0.244 0.145,0.161 0.212,0.382 0.188,0.624 l -0.23,2.214 c -0.043,0.409 -0.217,0.554 -0.366,0.554 -0.062,0 -0.167,-0.026 -0.288,-0.148 -0.247,-0.246 -0.467,-0.563 -0.532,-0.772 l -0.07,-0.219 -0.187,0.134 c -0.083,0.06 -0.217,0.172 -0.398,0.376 l -4.02,4.562 c -0.173,0.19 -0.401,0.296 -0.641,0.296 l 0,0 z m 0,-12.862 c -0.872,0 -1.582,0.711 -1.582,1.584 0,0.873 0.71,1.583 1.582,1.583 0.875,0 1.585,-0.71 1.585,-1.583 0,-0.873 -0.71,-1.584 -1.585,-1.584 l 0,0 z"
           id="path3264"
           style="fill:url(#linearGradient9146)"
           inkscape:connector-curvature="0" />
      </g>
      <path
         style="fill:#294172;fill-opacity:1"
         id="path8894"
         d="m 758.06732,355.93056 c 0,-48.92299 -39.65913,-88.58353 -88.5821,-88.58353 -48.9003,0 -88.54383,39.62791 -88.57928,88.5211 l -0.004,-0.003 0,68.54895 0.004,0.004 c 0.027,11.10062 9.02975,20.0878 20.13815,20.0878 0.0314,0 0.0624,-0.004 0.0951,-0.004 l 0.006,0.004 68.37444,0 0,0 c 48.9088,-0.0198 88.54805,-39.66622 88.54805,-88.57502 z"
         inkscape:connector-curvature="0" />
      <path
         style="fill:#ffffff;fill-rule:evenodd"
         inkscape:connector-curvature="0"
         id="path1794"
         d="m 721.79835,346.97545 -0.88495,-1.83333 -1.48443,-1.15456 c -1.94435,-1.52884 -11.74541,0.0983 -14.37806,-2.29326 -1.87774,-1.73501 -2.17272,-4.85295 -2.74366,-9.03981 -1.05306,-8.15169 -1.71598,-8.58623 -2.99741,-11.32672 -4.61823,-9.82326 -17.14075,-17.21053 -25.75869,-18.22553 h -23.32907 c -18.36825,0 -33.36483,15.04732 -33.36483,33.39021 v 38.93779 c 0,18.31751 14.99658,33.32043 33.36483,33.32043 h 38.31295 c 18.37143,0 33.26649,-15.00292 33.37117,-33.32043 l 0.20617,-26.97035 -0.31401,-1.48444 z m -71.17027,-16.59201 h 18.50148 c 3.52394,0 6.38813,2.87371 6.38813,6.35958 0,3.48588 -2.86102,6.39448 -6.38813,6.39448 h -18.50148 c -3.52711,0 -6.38496,-2.9086 -6.38496,-6.39448 0,-3.48587 2.85785,-6.35958 6.38496,-6.35958 z m 37.60244,50.90523 h -37.59927 c -3.52711,0 -6.38496,-2.88957 -6.38496,-6.35641 0,-3.48905 2.85468,-6.35324 6.38496,-6.35324 h 37.59927 c 3.50174,0 6.35324,2.86419 6.35324,6.35324 0,3.47002 -2.8515,6.35641 -6.35324,6.35641 z"
         clip-rule="evenodd" />
    </g>
  </g>
</svg>
