<?xml version="1.0" encoding="UTF-8" standalone="no"?>
<!-- Created with Inkscape (http://www.inkscape.org/) -->

<svg
   xmlns:dc="http://purl.org/dc/elements/1.1/"
   xmlns:cc="http://creativecommons.org/ns#"
   xmlns:rdf="http://www.w3.org/1999/02/22-rdf-syntax-ns#"
   xmlns:svg="http://www.w3.org/2000/svg"
   xmlns="http://www.w3.org/2000/svg"
   xmlns:xlink="http://www.w3.org/1999/xlink"
   xmlns:sodipodi="http://sodipodi.sourceforge.net/DTD/sodipodi-0.dtd"
   xmlns:inkscape="http://www.inkscape.org/namespaces/inkscape"
   width="250"
   height="250"
   id="svg9341"
   version="1.1"
   inkscape:version="0.48.4 r9939"
   sodipodi:docname="social-blog.svg">
  <defs
     id="defs9343">
    <linearGradient
       id="SVGID_119_"
       gradientUnits="userSpaceOnUse"
       x1="352.2988"
       y1="191.59129"
       x2="352.2988"
       y2="240.0515">
      <stop
         offset="0"
         style="stop-color:#FCFCFC"
         id="stop1500" />
      <stop
         offset="1"
         style="stop-color:#D4D4D4"
         id="stop1502" />
    </linearGradient>
    <linearGradient
       id="SVGID_120_"
       gradientUnits="userSpaceOnUse"
       x1="337.87399"
       y1="162.91161"
       x2="337.87399"
       y2="205.2271">
      <stop
         offset="0"
         style="stop-color:#DFE2E4"
         id="stop1509" />
      <stop
         offset="1"
         style="stop-color:#BEC7CC"
         id="stop1511" />
    </linearGradient>
    <linearGradient
       id="SVGID_121_"
       gradientUnits="userSpaceOnUse"
       x1="358.06839"
       y1="162.9106"
       x2="358.06839"
       y2="205.2282">
      <stop
         offset="0"
         style="stop-color:#DFE2E4"
         id="stop1516" />
      <stop
         offset="1"
         style="stop-color:#BEC7CC"
         id="stop1518" />
    </linearGradient>
    <linearGradient
       id="SVGID_122_"
       gradientUnits="userSpaceOnUse"
       x1="365.28119"
       y1="162.91161"
       x2="365.28119"
       y2="205.2271">
      <stop
         offset="0"
         style="stop-color:#DFE2E4"
         id="stop1523" />
      <stop
         offset="1"
         style="stop-color:#BEC7CC"
         id="stop1525" />
    </linearGradient>
    <linearGradient
       id="SVGID_185_"
       gradientUnits="userSpaceOnUse"
       x1="475.80521"
       y1="196.2979"
       x2="475.80521"
       y2="264.1524">
      <stop
         offset="0"
         style="stop-color:#EEF3F5"
         id="stop2142" />
      <stop
         offset="1"
         style="stop-color:#D6DEE3"
         id="stop2144" />
    </linearGradient>
    <clipPath
       id="SVGID_192_">
      <polygon
         id="use2224"
         points="506.1,233.782 495.864,233.782 495.864,223.545 493.305,223.545 493.305,233.782 483.067,233.782 483.067,236.34 493.305,236.34 493.305,246.579 495.864,246.579 495.864,236.34 506.1,236.34 " />
    </clipPath>
    <linearGradient
       gradientTransform="matrix(0,36.2061,36.2061,0,-13262.94,-12442.588)"
       y2="379.97711"
       x2="350.47491"
       y1="379.97711"
       x1="349.83499"
       gradientUnits="userSpaceOnUse"
       id="SVGID_193_">
      <stop
         id="stop2229"
         style="stop-color:#F8F9FA"
         offset="0" />
      <stop
         id="stop2231"
         style="stop-color:#D2D2D4"
         offset="1" />
    </linearGradient>
    <linearGradient
       inkscape:collect="always"
       xlink:href="#SVGID_296_"
       id="linearGradient9144"
       gradientUnits="userSpaceOnUse"
       x1="580.63531"
       y1="111.9399"
       x2="606.28473"
       y2="111.9399" />
    <linearGradient
       id="SVGID_296_"
       gradientUnits="userSpaceOnUse"
       x1="580.63531"
       y1="111.9399"
       x2="606.28473"
       y2="111.9399">
      <stop
         offset="0"
         style="stop-color:#A6A6A6"
         id="stop3253" />
      <stop
         offset="1"
         style="stop-color:#595959"
         id="stop3255" />
    </linearGradient>
    <linearGradient
       inkscape:collect="always"
       xlink:href="#SVGID_297_"
       id="linearGradient9146"
       gradientUnits="userSpaceOnUse"
       x1="592.95068"
       y1="104.2393"
       x2="592.95068"
       y2="114.9238" />
    <linearGradient
       id="SVGID_297_"
       gradientUnits="userSpaceOnUse"
       x1="592.95068"
       y1="104.2393"
       x2="592.95068"
       y2="114.9238">
      <stop
         offset="0"
         style="stop-color:#DAE5EB"
         id="stop3260" />
      <stop
         offset="1"
         style="stop-color:#FFFFFF"
         id="stop3262" />
    </linearGradient>
  </defs>
  <sodipodi:namedview
     id="base"
     pagecolor="#ffffff"
     bordercolor="#666666"
     borderopacity="1.0"
     inkscape:pageopacity="0.0"
     inkscape:pageshadow="2"
     inkscape:zoom="0.35"
     inkscape:cx="387.14286"
     inkscape:cy="-25.287809"
     inkscape:document-units="px"
     inkscape:current-layer="layer1"
     showgrid="false"
     inkscape:window-width="580"
     inkscape:window-height="454"
     inkscape:window-x="5"
     inkscape:window-y="28"
     inkscape:window-maximized="0" />
  <metadata
     id="metadata9346">
    <rdf:RDF>
      <cc:Work
         rdf:about="">
        <dc:format>image/svg+xml</dc:format>
        <dc:type
           rdf:resource="http://purl.org/dc/dcmitype/StillImage" />
        <dc:title></dc:title>
      </cc:Work>
    </rdf:RDF>
  </metadata>
  <g
     inkscape:label="Capa 1"
     inkscape:groupmode="layer"
     id="layer1"
     transform="translate(0,-802.36218)">
    <g
       id="g9063"
       transform="translate(-158.91338,375.57858)">
      <path
         inkscape:connector-curvature="0"
         d="m 376.06732,553.93056 c 0,-48.92299 -39.65913,-88.58353 -88.5821,-88.58353 -48.9003,0 -88.54383,39.62791 -88.57928,88.5211 l -0.004,-0.003 0,68.54895 0.004,0.004 c 0.027,11.10062 9.02975,20.0878 20.13815,20.0878 0.0314,0 0.0624,-0.004 0.0951,-0.004 l 0.006,0.004 68.37444,0 0,0 c 48.9088,-0.0198 88.54805,-39.66622 88.54805,-88.57502 z"
         id="path8690"
         style="fill:#294172;fill-opacity:1" />
      <path
         style="fill:#ffffff"
         inkscape:connector-curvature="0"
         id="path2137"
         d="m 216.02409,550.10571 c 5.02914,0.85586 12.31533,-0.0328 16.18817,-1.64356 -8.03097,-0.66399 -13.46658,-4.31213 -15.5671,-9.27058 2.89327,1.77484 11.88866,3.72389 16.84711,1.8733 0.24994,-1.17397 0.52008,-2.27977 0.78264,-3.28711 3.77943,-13.89578 16.73855,-25.09773 30.29601,-23.7445 -1.08812,-0.44182 -2.20151,-0.85082 -3.31489,-1.22952 -1.48703,-0.5327 -10.25519,-1.96924 -8.8742,-5.05691 1.16891,-2.72411 11.87351,2.05256 13.88568,2.6812 -2.65849,-0.99977 -7.05898,-2.71402 -7.53109,-5.78149 4.07734,0.56048 8.07641,2.4868 11.16661,5.29928 -1.10581,-1.20679 -1.95662,-2.67363 -2.1384,-4.24902 10.87879,6.96051 17.23086,20.96989 22.36856,34.5728 4.03695,-3.91828 7.62197,-7.0009 10.82578,-8.7202 9.00801,-4.82211 19.7732,-9.86388 36.66575,-16.14525 0.52513,5.58709 -2.76199,13.04243 -12.21182,17.97816 2.03741,-0.27519 5.79411,0.34588 8.78332,1.06289 -1.22194,6.41518 -5.20586,11.69426 -16.00387,14.24922 4.92814,0.31558 7.48059,1.45421 9.78814,3.87032 -2.23938,4.46361 -7.73306,9.70482 -17.58431,8.62931 10.96715,4.73123 4.46613,13.49688 -4.46109,12.19415 15.22375,15.74383 39.22324,14.57743 53.01045,1.41886 -35.98409,49.08712 -114.22103,29.02358 -125.86984,-18.25587 -8.7404,0.0631 -13.87053,-3.02708 -17.05161,-6.44548 z" />
    </g>
  </g>
</svg>
